<svg
  className="icon"
  width="200px"
  height="100px"
  viewBox="0 0 500 500"
>
<path fill="#dfdccb" d="M333,75h-4c-6-10-17-17-31-17l-13,2c-6-13-21-21-37-21a44,44,0,0,0-26,8c-3-11-14-20-28-20h-3V26c0-15-14-26-30-26s-21,5-26,13A45,45,0,0,0,102,1C79,1,60,18,60,38a32,32,0,0,0,0,3C41,42,25,55,21,71H20C9,71,0,78,0,88H349C349,81,342,75,333,75Z"/>
<path fill="#d9d5c1" d="M277,88c-1-4-4-7-9-7h-1c-2-5-8-8-14-8h-5c-4-5-10-9-18-9h-4c-6-10-18-16-31-16a40,40,0,0,0-15,3h-3l-6,2a22,22,0,0,0-14-5h-3c-6-8-17-14-29-14S98,42,92,51H90c-9,0-16,6-16,14a12,12,0,0,0,0,3A19,19,0,0,0,62,78H60c-7,0-13,4-15,10Z"/>
</svg>