<svg viewBox="0 0 500 500"><defs><style>.a{fill:none;}.b{clip-path:url(#a);}.c{fill:#a3c29e;}.d{fill:#dfdccb;}.e,.f{fill:#345e52;}.e{fill-rule:evenodd;}.g{fill:#224238;}</style><clipPath id="a" transform="translate(0 -141)"><rect class="a" x="112" width="1603" height="419"/></clipPath></defs><title>trees</title><g class="b"><polygon class="c" points="2168 80 2126 71 2116 81 2103 96 2101 95 2039 67 2026 72 2000 83 1976 71 1975 70 1935 98 1933 100 1855 79 1764 53 1749 64 1697 34 1666 48 1599 0 1599 0 1514 63 1513 63 1437 32 1437 32 1408 58 1407 58 1388 55 1358 62 1341 66 1209 15 1209 214 1333 207 1374 204 1588 290 1768 314 1932 284 2008 251 1967 167 1978 166 2016 164 2051 162 2086 160 2114 158 2361 142 2361 66 2361 12 2271 60 2219 40 2168 80"/><path class="d" d="M2350,583h0C2348,581,2349,583,2350,583Z" transform="translate(0 -141)"/><path class="d" d="M2350,583h0Z" transform="translate(0 -141)"/><rect class="c" x="1692" y="123" width="667" height="126.89"/><path class="e" d="M1235,327l33,11,14,3,12-6,55-10c2-1,6,4,9,6s9-6,9-6h15l16,5h4c1,0,1,0,1-1h1c1,0,1,0,1-1s1,0,1-1v-9h1c1,0,1,0,1-1v-2h-1v-2h2c1,0,1,0,1-1h1c1,0,1,0,1-3h-2v-3h3c1,0,1,0,1-1v-3c1,0,1,0,1-1v-6h1v9h1v2c0,2,0,2-1,1s0,2-1,1v3h1v4h3v2h1c0,2,1,2,1,2h1c1,0,1,0,1-1v-3c1,0,1,0,1-1h1c1,0,1,0,1-1v-2a4,4,0,0,1-3-3h-2v-2h1c1,0,1,0,1-1h1c1,0,1,0,1-1v-4h-1v-6c1,0,1,0,1-1v-3h1c1,0,1,0,1-1v-6c1,0,1,0,1-1v-6c1,0,1,0,1-3h-1v-3c1,0,1,0,1-1s2,1,2-1h1c0,2,1,2,1,2s1,2,1,2v4h1v2c0,2,0,2-1,1v4h3v3c0,2-1,1-1,1s-1,0-1,3h4c0,2,1,2,1,2v2c0,2,1,2,1,2v5h2v-3h3c0,2,0,2,2,2s0-3-1-3v-2h3c1,0,1,0,1-1v-8h2c0,2,1,2,1,2s1,0,1-1v-2h2v2c0,2,1,2,1,2v2c0,2,1,2,1,2s1,2,1,2,1,2,1,2h3c0,2,1,2,1,2v2h-2c-1,0-1,0-1,3h1v3c0,2-1,1-1,1v2c0,2,1,2,1,2s1,2,1,2h1v3h-1c0,2-1,1-1,1s1,2,1,2v3c0,2,1,2,1,2s1,2,1,2l2,2v-3h1s1,0,1-1h1s1,0,1-1,1,0,1-1v-3h1c0,2,1,2,1,2h1s1,0,1-1v-2s1,0,1-1v-3h1v3c0,2,1,2,1,2v3c0,2,1,2,1,2s1,2,1,2h2v2c0,2,1,2,1,2h1s1,0,1-1v-2h3c0,2,1,2,1,2h1s1,0,1-1-1,0-1-2-1,0-1-2-1,0-1-2v-2h2c0,2,0,2,2,2v-3s-1,0-1-2v-2h2s1,0,1-1v-9c1,0,1,0,1-3h-1v-2s-1,0-1-2v-2c1,0,2,1,3-1a9,9,0,0,1-1-3v-3s1,0,1-1v-2s1,0,1-1,1,0,1-1h1c0,2,1,2,1,2s1,2,1,2,1,2,1,2,1,2,1,2v2c0,2-1,1-1,1v2c0,2,1,2,1,2h1l2,2c0,2-1,1-1,1v2c0,2,1,2,1,2h1s1,0,1-1h1v5c0,2-1,1-1,1v3c0,2,1,2,1,2v2c0,2,1,2,1,2h1v2c0,2,1,2,1,2h1v-5h1c0,2,1,2,1,2h2s1,0,1-1-1,0-1-2v-2h1s1,0,1-1-1,0-1-2v-2h3s1,0,1-1,1,0,1-1h1c0,2,1,2,1,2v2c0,2,1,4,1,5v3c0,2-1,1-1,1v2h1s1,0,1-1,1,0,1-1,1,0,1-1,1,0,1-1,1,0,1-1,1,0,1-1,1,0,1-1h2c0,2,1,2,1,2s1,2,1,2v2c0,2-1,1-1,1v2l2,2h1v2a6,6,0,0,1-1,3c0,2,1,2,1,2h2v2c0,2-1,1-1,1h-1c-1,0-1,0-1,3h2c0,2,1,2,1,2h2v2c0,2-1,1-1,1s1,2,1,2v3c2,1,2,1,2-1v-2h3s1,0,1-1v-8h2s1,0,1-1-1,0-1-2-1,0-1-2v-3h1c0,2,1,2,1,2h2c0,2,1,2,1,2h1c1,0,1,0,1-3h-1v-2h1s1,0,1-1v-2s-1,0-1-2v-2c0-2,1-3,1-4h1s1,0,1-1v-2h1v8l2,2c0,2-1,1-1,1v2c0,2,1,2,1,2h1v2c0,2-1,1-1,1v3h3v-2h1v2a9,9,0,0,0,1,4v2c0,2-1,1-1,1v2c0,2,1,2,1,2s1,0,1-1h1c0,2,1,2,1,2h1s1,0,1-1,1,0,1-3h-1s-1,0-1-2v-2s1,0,1-1v-5h2s1,0,1-1,1,0,1-1v-2s1,0,1-1-1,0-1-2-1,0-1-2v-8s1,0,1-1,1,0,1-1h1c0,2,1,2,1,2h1c0,2,1,2,1,2s1,2,1,2v2c0,2-1,1-1,1s1,2,1,2h1c0,2,1,2,1,2v2c0,2-1,1-1,1v2h1v2c0,2-1,1-1,1v2c0,2,1,2,1,2h1c0,2,1,2,1,2v2c0,2,1,2,1,2h3s1,0,1-1,1,0,1-1v-2s-1,0-1-2v-3s-1,0-1-2v-2h1s1,0,1-1h1s1,0,1-1v-3s-1,0-1-2-1,0-1-2-1,0-1-2h-2v-2h2s1,0,1-1-1,0-1-2-1,0-1-2h-1v-2h1s1,0,1-1,1,0,1-1-1,0-1-2v-2h2s1,0,1-1v-6s-1,0-1-2v-3s1,0,1-1v-2h1a9,9,0,0,0,1,4c0,2,1,2,1,2v3c0,2,1,2,1,2h2v5h5v3c0,2,1,2,1,2s1,2,1,2h1s1,0,1-1h1v8c0,2,1,2,1,2h1v2c0,2,1,2,1,2v3c0,2,1,2,1,2s1,2,1,2v2c0,2,1,2,1,2s1,2,1,2,1,0,1-1,1,0,1-1v-3s1,0,1-1v-2s-1,0-1-2v-2h1s1,0,1-1v-2s1,0,1-1-1,0-1-2h-1v-5h1s1,0,1-1v-2h2v2c0,2,1,2,1,2v2c0,2-1,1-1,1v3c0,2,1,2,1,2h2s1,0,1-1h1s1,0,1-1v-2s1,0,1-1V323c0,2,1,2,1,2h1c0,2,1,2,1,2v2c0,2,1,2,1,2s1,2,1,2h1v5c0,2-1,1-1,1s1,2,1,2h3c1,2,1,4,2,4s1,2,1,2,1,2,1,2h1s1,0,1-1-1,0-1-2v-3h1s1,0,1-1v-2c0-2-1-5,0-8V320h3v-3s1,0,1-1h1s1,0,1-1-1,0-1-2v-2s1,0,1-1v-2h3s1,0,1-1v-2s-1,0-1-2v-2s1,0,1-1v-8h2v2c-1,0-1,0-1,3h1c0,2,1,2,1,2v2c0,2-1,1-1,1s1,2,1,2h1v3c0,2,1,2,1,2h1c0,2,1,2,1,2v2c0,2,1,2,1,2v2c0,2-1,1-1,1v2c0,2,0,2,2,2v-2s1,0,1-1,1,0,1-1v-2h1c0,2,1,2,1,2h1s1,0,1-1v-2h1c0,2,1,2,1,2v6c0,2,1,2,1,2h3s1,0,1-1v-2h1v2c0,2,1,2,1,2v2c0,2,1,2,1,2h1V325h4v2c0,2,1,2,1,2s1,2,1,2h1c0,2,1,2,1,2s1,2,1,2,0,2,2,2v-3s1,0,1-1,1,0,1-1,1,0,1-1v-5s1,0,1-1v-2h1v2c0,3,0,3,1,3v-3s1,0,1-1h4s1,0,1-1,1,0,1-1h1c0,2,1,2,1,2v2c0,2,1,2,1,2v5c-1,0-1,0-1,3h1c0,2,0,2,1,2h1c0,2,0,2,1,2s0,2,1,2h1c0,2,1,2,1,2h2v-5s1,0,1-1v-3h3v-3h2c-1,0-1,0-1-2v-9h2v-2c-1,0-1,0-1-2s-1,0-1-2v-2h2v-2s1,0,1-1h1c0,2,1,2,1,2h1v2c0,2,0,2,1,2s0,2,1,2,0,2,1,2,0,2,1,2h1v3h-1v5h2v2c0,2,1,2,1,2v6c0,2,1,2,1,2h1v3h-1v2c0,2,0,2,1,2v5c0,2,0,2,1,2h2v-2h2s0-30,1-31h1v-2h1v-2h1v-2h1v-2h1v-3h1v-2h1v-2h1v2a10,10,0,0,0,1,5c0,2,0,2,1,2h1v2h-1v2c0,2,0,2,1,2h3v5h-1c0,2,1,2,2,2s0,2,1,2v3c0,2,0,2,1,2v5c0,2,0,2,1,2h3c1,0,1,0,1-3h-1v-3h1v-2h1v-2c-1,0-1,0-1-2v-8h1v-3h1c0,2,0,2,1,2v3c0,2,0,2,2,2v-2h1v2c0,2,0,2,1,2v2c-1,0-1,0-1,3h3v5h-3v2h2c0,2,0,2,1,2v3c0,2,0,2,1,2h2v2c0,2,0-38,0-38a4,4,0,0,0,3,3h2v2h-4c0,2,0,2,1,2v2c0,2,0,2,1,2h2c0,2,0,2,1,2h1c-1,0-1,0-1-2v-3h2c1,0,1,0,1-3h-1V296c-1,0-1,0-1-2s-1,0-1-2v-2h4c-1,0-1,0-1-2v-5a6,6,0,0,1,1-3h1v-2h1c0,2,0,2,1,2s0,2,1,2,0,2,1,2,0,2,1,2h1v2h-2c0,2,1,2,2,2h3v2h-1v2c0,2,0,2,1,2h3v6h-1v2c0,2,0,2,1,2h1v2c0,2,0,2,1,2h5c0,2,0,2,2,2v-2c-1,0-1,0-1-2v-2h2c-1,0-1,0-1-2s-1,0-1-2-1,0-1-2v-2h6v-8h1c1,0,1,0,1-3h-1c-1,0-1,0-1-2h-2v-2h5v5c0,2,0,2,1,2v8h1v2h-2c0,2,0,2,1,2h1c0,2,0,2,1,2s0,3,1,3h3c1,0,1,0,1-3h-1v-2h1c1,0,1,0,1-3h-1v-3h1v-3h3v-3h1v-5h2v-3c-1,0-1,0-1-2s-1,0-1-2v-2h2c0-2,0-3,1-4v-3h1a6,6,0,0,1,1-3v-3h3c0,2,0,2,1,2h1c-1,0-1,0-1-2v-3c-1,0-1,0-1-2v-3h2v-2h1c0,2,0,2,1,2v2c0,2,0,3,1,3v5c0,2,0,2,1,2h2v2h-1v3h-1v2c0,2,0,2,1,2h2c0,2,0,2,1,2v2h-3c-1,0-1,0-1,3h3v2c-1,0-1,0-1,3h1c0,2,0,3,1,3h4v-3c-1,0-1,0-1-2v-3h3v3c0,2,1,2,2,2v6h-1v2c0,2,0,2,1,2s0,2,1,2,0,2,1,2,0,2,2,2v-8h2v-2a6,6,0,0,1,1-3h2c-1,0-1,0-1-2v-2h1a6,6,0,0,1,1-3v-2h2c0,2,0,2,2,2s0-3-1-3v-5h2c0,2,0,2,2,2v-2h1v-2c-1,0-1-2-1-4v-3h1v-6h1v2c0,2,0,2,1,2s0,2,1,2,0-3,1-4v-3h1v-8h2v3c0,2,0,2,1,2s0,2,1,2,0,2,1,2,0,2,1,2v2h-2c0,2,0,2,1,2s0,3,1,3,0,2,1,2v2c0,2,0,2,1,2h2v3h-1v5h-1c0,2,0,2,2,2v-2h3v3h-1v2c0,2,0,2,1,2v9c0,2,0,2,1,2v2c0,2,0,2,1,2h2v2h6v2a4,4,0,0,0,3,3v2h-1c0,2,0,3,1,3h2c0,2,0,2,1,2s0,2,2,2v-6h1v2h3v-3h1c0,2,0,2,1,2s0,2,1,2,0,2,1,2h2v-5h1v-2a5,5,0,0,1,1-3v-2h1v-3h2c0,2,0,2,1,2v2h-1v3c0,2,0,2,1,2v2h-1c0,2,0,2,1,2v2h-1c-1,0-1,0-1,3h3c0,2,0,2,1,2h1v3h-2c-1,0-1,0-1,3h1c0,2,0,2,1,2h2c0-2,0-3,1-4h1v-2c1,0,1,0,1-3h-1c-1,0-1,0-1-2s-1,0-1-2v-3h1v-5h3v3h6v3h3c0,2,0,2,1,2h2c0,2,0,2,1,2s0,2,1,2h1c0,2,0,3,1,4h2a6,6,0,0,1,1-3v-3h1v-6h2v-2c0,2,1,2,2,2h1c-1,0-1,0-1-2v-2a6,6,0,0,1,1-3h1c-1,0-1,0-1-2s-1,0-1-2-1,0-1-2v-2h1v-3h4c0,2,0,2,1,2h1c0,2,0,2,1,2s1,2,2,2h1v5c0,2,0,2,1,2h2c0,2,0,2,1,2h1v-3h1v-2c1,0,1,0,1-3h-1v-2h2c1,0,2,1,3-1h1V296h2v2c0,2,0,2,1,2h3c1,0,1,0,1-3h-1v-2h1c-1,0-1,0-1-2v-2h2v-2h1v-2h3v8h3v2c0,2,0,3,1,3h1v2c0,2,0,2,1,2v11h6v-2c-1,0-1,0-1-2s-1,0-1-2v-3h4v-2c-1,0-1,0-1-2v-2h4c1,0,1,0,1-1v-3c1,0,1,0,1-1h3c-1,0-1,0-1-2l-2-2h-1v-2h3a6,6,0,0,1,1-3v-2h1c1,0,1,0,1-1v-3c1,0,1,0,1-1v-3h2v5h3v4h1v2c0,2,0,2-1,1v7c0,2,0,2-1,1s0,2-1,1v5h1c1,0,1,0,1-1h3c1,0,1,0,1-1v-2a9,9,0,0,0-1-3v-2h2v-3c1,0,1,0,1-3h-1v-7h2c1,0,1,0,1-1v-2h2c1,0,1,0,1-1v-2h-1v-2h1c1,0,1,0,1-1h1c1,0,1,0,1-1V262h-1v-2h2c1,0,1,0,1-1h1c1,0,1,0,1-1h2v3a10,10,0,0,1,1,5,10,10,0,0,1,1,5h1v4c0,2,0,2-1,1v7h2v3h1v5c0,2,0,2,2,2v-5h-1v-5h4c1,0,1,0,1-3h-2v-2h1c1,0,1,0,1-1v-2h-1v-2h2c1,0,1,0,1-1v-3h2c1,0,1,0,1-1h3v7a10,10,0,0,1,1,5v3h1v2h-2v9h1v10h2v4c0,2,0,2,2,2v-2c1,0,1,0,1-1V304h1c1,0,1,0,1-1v-2c1,0,1,0,1-3h-1v-2c1,0,1,0,1-1h1v11h1v9h2v2c0,2,0,2-1,1v3h1v2h2c1,0,1,0,1-1s1,0,1-1v-4h1c1,0,1,0,1-1V307c1,0,1,0,1-1h1v5c1,0,1,0,1-1v-2h1v5c0,2,0,2-1,1v5a9,9,0,0,1,1,4h4v-7c1,0,1,0,1-1s1,0,1-1,1,0,1-1v-4h-1v-2c1,0,1,0,1-1h1c1,0,1,0,1-1v-2h-2v-2c1,0,1,0,1-1h1c1,0,1,0,1-1v-3h1c1,0,1,0,1-1v-2h1v4h1v2h1a10,10,0,0,1,1,5v2h1v2c0,2,0,2-1,1v5c0,2,0,2-1,1v5h3v2h-2c0,2,0,2-1,1h-1c-1,0-1,0-1,3h1l2,2h1v3h1v2h1c1,0,1,0,1-1s1,0,1-1,1,0,1-1,1,0,1-1V317c1,0,1,0,1-1s1,0,1-1,1,0,1-1,1,0,1-1v-2c1,0,1,0,1-1s1-1,1-3v-2h-1v-2h-1v-2h3c1,0,1,0,1-1h1c1,0,1,0,1-1s1,0,1-1v-3h1c1,0,1,0,1-1v-3h-1v-2c1,0,1,0,1-1h1c1,0,1,0,1-1s1,0,1-1v-2c1,0,1,0,1-1h1c1,0,1,0,1-1v-2h4v2h2v3h1v7h1v5h3v2c0,2,0,2-1,1s0,2-1,1v2h1v4h2v-8c1,0,1,0,1-1h1v2c1,0,2,1,2-1s1,0,1-1h1c1,0,1,0,1-1v-2h-1v-2c1,0,1,0,1-1v-2h-2v-2h2c1,0,1,0,1-1v-5h2c1,0,1,0,1-1s1,0,1-1v-2h-1v-3h3c1,0,1,0,1-1v-5c1,0,1,0,1-1v-2c1,0,1,0,1-1v7h2v2c0,2,0,2-1,1s0,2-1,1v3h1v3h5v2h2v-5h1c1,0,1,0,1-1s1,0,1-1v-2h-3v-3h1c1,0,1,0,1-1s1,0,1-3h-2v-5c1,0,1,0,1-1s1,0,1-3h-1v-2c1,0,1,0,1-1s1,0,1-1a9,9,0,0,0-1-3v-2c1,0,1,0,1-1v-3c1,0,1,0,1-1v-2c1,0,1,0,1-3h-1v-4c1,0,1,0,1-1v-2h5v13h3v3c0,2,0,2-1,1v3h3v9c0,2,1,2,1,2h1c1,0,1-1,1-3v-2h1v2h2v-5h4v-3s-1,0-1-2v-5h2c0,2,1,2,1,2s1,0,1-1v-2h2v9h1c0,2,1,2,1,2h3v4h-3v3c0,2,1,2,1,2v2c0,2-1,1-1,1v2c0,2,1,2,1,2h1v3c0,2,0,2-1,1s-1,1-1,1,1,2,1,2v7c0,2,0,2,2,2v-5h2s1,0,1-1,1,0,1-1a6,6,0,0,0,1-3v-2h1v2h1c1,0,1,0,1-1v-5h2v3c0,2,1,2,1,2v2c0,2,1,2,1,2s1,2,1,2h2v2c0,2,1,2,1,2s1,0,1-1,1,0,1-1v-2h1c0,2,1,2,1,2h2c0,2,0,2,2,2v-2s-1,0-1-2-1,0-1-2v-3h2s1,0,1-1-1,0-1-2v-3h1s1,0,1-1v-6a6,6,0,0,0,1-3s-1,0-1-2v-2s-1,0-1-2-1,0-1-2v-2h3s1,0,1-1v-2s-1,0-1-2v-3s1,0,1-1v-2s1,0,1-1v-2h2c0,2,1,2,1,2s1,2,1,2,1,2,1,2,1,2,1,2v2c0,2-1,1-1,1v2h1a4,4,0,0,0,3,3v5h3v6c-1,0-1,0-1,3h1a9,9,0,0,0,1,3h1a9,9,0,0,0,1,3c0,2,1,2,1,2s1,0,1-1-1,0-1-2v-2h4s1,0,1-1-1,0-1-2,1,0,1-1,1,0,1-3h-1s-1,0-1-2,1,0,1-1h3s1,0,1-1v-3h2c0,2,1,2,1,2s1,2,1,2v6c0,2,1,2,1,2v2c0,2-1,1-1,1s-1,1-1,1,0,2,2,2v-3s1,0,1-1,1,0,1-1,1,0,1-1,1,0,1-1,1,0,1-1,1,0,1-1v-2h2c0,2,1,2,1,2s1,2,1,2v3c0,2-1,1-1,1s1,2,1,2h3v2c0,2-1,1-1,1v2c0,2,1,2,1,2h2v2c0,2-1,1-1,1h-1c0,2-1,1-1,1v2h1c0,2,1,2,1,2h3v2c-1,0-1,0-1,3h1v3c0,2,0,2,2,2v-3s1,0,1-1h2s1,0,1-1-1,0-1-2v-2s1,0,1-1v-2h1s1,0,1-1v-2s-1,0-1-2-1,0-1-2v-2h3c0,2,1,2,1,2h2s1,0,1-1-1,0-1-2h-1s-1,0-1-2v-2h2c0,2,1,2,1,2h1c1,0,1,0,1-3h-1v-6s1,0,1-1,1,0,1-1v-2h1v6c0,2,1,2,1,2h2v2c0,2-1,1-1,1s-1,1-1,1,1,2,1,2h1c0,2,1,2,1,2s-1,1-1,1v2c0,2,0,2,2,2v-2h2v9c0,2,0,2,2,2v-2h1c0,2,0,2,2,2v-2s1,0,1-1v-2s-1,0-1-2v-3s1,0,1-1v-3h1s1,0,1-1,1,0,1-1v-2s1,0,1-1-1,0-1-2-1,0-1-2v-2s-1,0-1-2v-2s1,0,1-1v-2s1,0,1-1,1,0,1-1h3v2c0,2,1,2,1,2h1v5h3v2c0,2-1,1-1,1v2c0,2-1,1-1,1s1,2,1,2v3c0,2,1,2,1,2s1,2,1,2h1v2c0,2,1,2,1,2h2s1,0,1-1,1,0,1-1v-2s-1,0-1-2v-3s-1,0-1-2v-2h3s1,0,1-1v-3s-1,0-1-2-1,0-1-2h-1s-1,0-1-2h-1v-2h2c1,0,1,0,1-3h-1s-1,0-1-2h-1v-2h1s1,0,1-1,1,0,1-3h-1v-2s1,0,1-1h1c1,0,1,0,1-3h-1v-3s-1,0-1-2v-2s1,0,1-1v-2s1,0,1-1h1v2c0,2,1,2,1,2s1,3,1,5,1,2,1,2,1,0,1-1h1v3c0,2-1,1-1,1a4,4,0,0,0,3,3h1s1,0,1-1h1v3c0,2,1,2,1,2v2c0,2,0,2,2,2v-2s1,0,1-1,1,2,1,2v6c0,2,1,2,1,2h1v3c0,2,1,2,1,2v2c0,2,1,2,1,2h1c0,2,1,2,1,2v3c0,2,0,2,2,2v-2s1,0,1-1v-5s1,0,1-1-1,0-1-2v-2s1,0,1-1,1,0,1-1v-2s-1,0-1-2h-1v-2s1,0,1-1v-2s1,0,1-1v-2h3v8c0,2,1,2,1,2h2s1,0,1-1,1,0,1-1,1,0,1-1,1,0,1-1v-5h1v2c0,2,1,2,1,2s1,2,1,2h1v2c0,2,1,2,1,2s1,2,1,2h1v5c-1,0-1,0-1,3h5v3h1v2c0,2,1,2,1,2h1s1,0,1-1-1,0-1-2v-3h4c0,2,1,2,1,2h0V609H1141V347Z" transform="translate(0 -141)"/><polygon class="c" points="1027 82 985 73 976 83 962 98 960 97 898 69 885 74 859 85 835 73 834 72 794 100 792 102 715 81 623 55 608 66 556 36 525 50 458 2 458 2 373 65 372 65 297 34 296 34 267 60 267 60 248 57 218 64 200 68 78 17 78 216 192 209 234 206 465 191 515 188 617 182 786 171 827 169 837 168 875 166 910 164 945 162 974 160 1220 144 1220 68 1209 15 1131 62 1078 42 1027 82"/><path class="d" d="M1210,585h0C1207,583,1209,585,1210,585Z" transform="translate(0 -141)"/><path class="d" d="M1210,585h0Z" transform="translate(0 -141)"/><rect class="c" x="551" y="125" width="667" height="126.89"/><path class="f" d="M1054,303h0v5c-2-1-2-1-2-2v-7s-1,0-1-2,1,0,1-1,1,0,1-1v-3h-1s-1,0-1-2v-2s1,0,1-1v-2s-1,0-1-2v-3h3v-4h-3s-1,0-1-2h-1v-9h-2v2c0,2,0,2-1,1s-1,0-1-2h-2v5c0,2,1,2,1,2v3h-4v5h-2v-2h-1v2c0,2,0,3-1,3h-1s-1,0-1-2v-9h-3v-3c1,0,1,0,1-1v-3h-3V244h-5v2c0,2,0,2-1,1v4h1c0,3,0,3-1,3v2c0,2,0,2-1,1v3c0,2,0,2-1,1v2a9,9,0,0,1,1,3c0,2,0,2-1,1s0,2-1,1v2h1c0,3,0,3-1,3s0,2-1,1v5h2c0,3,0,3-1,3s0,2-1,1h-1v3h3v2c0,2,0,2-1,1s0,2-1,1h-1v5h-2v-2h-5v-3h-1v-3c1,0,1,0,1-1s1,0,1-1v-2h-2v-7c0,2,0,2-1,1v2c0,2,0,2-1,1v5c0,2,0,2-1,1h-3v3h1v2c0,2,0,2-1,1s0,2-1,1h-2v5c0,2,0,2-1,1h-2v2h2v2c0,2,0,2-1,1v2h1v2c0,2,0,2-1,1h-1c0,2,0,2-1,1s-1,1-2,1v-2h-1c0,2,0,2-1,1v8h-2v-4h-1v-2c1,0,1,0,1-1s1,0,1-1v-2h-3v-5h-1v-7h-1v-3h-2v-2h-4v2c0,2,0,2-1,1h-1c0,2,0,2-1,1v2c0,2,0,2-1,1s0,2-1,1h-1c0,2,0,2-1,1v2h1v3c0,2,0,2-1,1h-1v3c0,2,0,2-1,1s0,2-1,1h-1c0,2,0,2-1,1h-3v2h1v2h1v2c0,2,0,3-1,3s0,2-1,1v2c0,2,0,2-1,1s0,2-1,1,0,2-1,1,0,2-1,1v15c0,2,0,2-1,1s0,2-1,1,0,2-1,1,0,2-1,1h-1v-2h-1v-3h-1l-2-2h-1c0-3,0-3,1-3h1c1,0,1,0,1-1h2v-2h-3v-5c1,0,1,0,1-1v-5c1,0,1,0,1-1v-2h-1v-2a10,10,0,0,0-1-5h-1v-2h-1v-4h-1v2c0,2,0,2-1,1h-1v3c0,2,0,2-1,1h-1c0,2,0,2-1,1v2h2v2c0,2,0,2-1,1h-1c0,2,0,2-1,1v2h1v4c0,2,0,2-1,1s0,2-1,1,0,2-1,1v7h-4a9,9,0,0,0-1-4v-5c1,0,1,0,1-1v-5h-1v2c0,2,0,2-1,1v-5h-1c0,2,0,2-1,1v12c0,2,0,2-1,1h-1v4c0,2,0,2-1,1s0,2-1,1h-2v-2h-1v-3c1,0,1,0,1-1v-2h-2v-9h-1V298h-1c0,2,0,2-1,1v2h1c0,3,0,3-1,3v2c0,2,0,2-1,1h-1v11c0,2,0,2-1,1v2c-2-1-2-1-2-2v-4h-2V303h-1v-9h2v-2h-1v-3a10,10,0,0,0-1-5v-7h-3c0,2,0,2-1,1h-2v3c0,2,0,2-1,1h-2v2h1v2c0,2,0,2-1,1h-1v2h2c0,3,0,3-1,3h-4v5h1v5c-2-1-2-1-2-2v-5h-1v-3h-2v-7c1,0,1,0,1-1v-4h-1a10,10,0,0,0-1-5,10,10,0,0,0-1-5v-3h-2c0,2,0,2-1,1h-1c0,2,0,2-1,1h-2v2h1v10c0,2,0,2-1,1h-1c0,2,0,2-1,1h-1v2h1v2c0,2,0,2-1,1h-2v2c0,2,0,2-1,1h-2v7h1c0,3,0,3-1,3v3h-2v2a9,9,0,0,1,1,3v2c0,2,0,2-1,1h-3c0,2,0,2-1,1h-1v-5c1,0,1,0,1-1s1,0,1-1v-7c1,0,1,0,1-1v-2h-1v-4h-3v-5h-2v3c0,2,0,2-1,1v3c0,2,0,2-1,1h-1v2a6,6,0,0,0-1,3h-3v2h1l2,2c0,2,0,2,1,2h-3c0,2,0,2-1,1v3c0,2,0,2-1,1h-4v2c0,2,0,2,1,2v2h-4v3c0,2,0,2,1,2s0,2,1,2v2h-6V304c-1,0-1,0-1-2v-2h-1c-1,0-1-2-1-3v-2h-3v-8h-3v2h-1v2h-2v2c0,2,0,2,1,2h-1v2h1c0,3,0,3-1,3h-3c-1,0-1,0-1-2v-2h-2v13h-1c-1,1-2,1-3,1h-2v2h1c0,3,0,3-1,3v2h-1v3h-1c-1,0-1,0-1-2h-2c-1,0-1,0-1-2v-5h-1c-1,0-2-1-2-2s-1,0-1-2h-1c-1,0-1,0-1-2h-4v3h-1v2c0,2,0,2,1,2s0,2,1,2,0,2,1,2h-1a6,6,0,0,0-1,3v2c0,2,0,2,1,2h-1c-1,0-2-1-2-2v2h-2v6h-1v3a6,6,0,0,0-1,3h-2c-1,0-1-2-1-4h-1c-1,0-1,0-1-2s-1,0-1-2h-2c-1,0-1,0-1-2h-3v-3h-6v-3h-3v5h-1v3c0,2,0,2,1,2s0,2,1,2h1c0,3,0,3-1,3v2h-1c-1,1-1,3-1,4h-2c-1,0-1,0-1-2h-1c0-3,0-3,1-3h2v-3h-1c-1,0-1,0-1-2h-3c0-3,0-3,1-3h1v-2c-1,0-1,0-1-2h1v-2c-1,0-1,0-1-2v-3h1v-2c-1,0-1,0-1-2h-2v3h-1v2a5,5,0,0,0-1,3v2h-1v5h-2c-1,0-1,0-1-2s-1,0-1-2-1,0-1-2h-1v3h-3v-2h-1v6c-2-1-2-1-2-2s-1,0-1-2h-2c-1,0-1-2-1-3h1v-2a4,4,0,0,1-3-3v-2h-6v-2h-2c-1,0-1,0-1-2v-2c-1,0-1,0-1-2v-9c-1,0-1,0-1-2v-2h1v-3h-3v2c-2-1-2-1-2-2h1v-5h1v-3h-2c-1,0-1,0-1-2v-2c-1,0-1,0-1-2s-1-2-1-3-1,0-1-2h2v-2c-1,0-1,0-1-2s-1,0-1-2-1,0-1-2-1,0-1-2v-3h-2v8h-1v3c-1,1-1,3-1,4s-1,0-1-2-1,0-1-2v-2h-1v6h-1v3c0,2,0,3,1,4v2h-1v2c-2-1-2-1-2-2h-2v5c1,0,1,0,1,3s-2-1-2-2h-2v2a6,6,0,0,0-1,3h-1v2c0,2,0,2,1,2h-2a6,6,0,0,0-1,3v2h-2v8c-2-1-2-1-2-2s-1,0-1-2-1,0-1-2-1,0-1-2v-2h1v-6c-1,0-2-1-2-2v-3h-3v3c0,2,0,2,1,2v3h-4c-1,0-1-2-1-3h-1c0-3,0-3,1-3v-2h-3c0-3,0-3,1-3h3v-2c-1,0-1,0-1-2h-2c-1,0-1,0-1-2v-2h1v-3h1v-2h-2c-1,0-1,0-1-2v-5c-1,0-1-2-1-3v-2c-1,0-1,0-1-2h-1v2h-2v3c0,2,0,2,1,2v3c0,2,0,2,1,2h-1c-1,0-1,0-1-2h-3v3a6,6,0,0,0-1,3h-1v3c-1,1-1,3-1,4h-2v2c0,2,0,2,1,2s0,2,1,2v3h-2v5h-1v3h-3v3h-1v3h1c0,3,0,3-1,3h-1v2h1c0,3,0,3-1,3h-3c-1,0-1-2-1-3s-1,0-1-2h-1c-1,0-1,0-1-2h2v-2h-1v-8c-1,0-1,0-1-2v-5h-5v2h2c0,2,0,2,1,2h1c0,3,0,3-1,3h-1v8h-6v2c0,2,0,2,1,2s0,2,1,2,0,2,1,2h-2v2c0,2,0,2,1,2v2c-2-1-2-1-2-2h-5c-1,0-1,0-1-2v-2h-1c-1,0-1,0-1-2v-2h1v-6h-3c-1,0-1,0-1-2v-2h1v-2h-3c-1,0-2-1-2-2h2v-2h-1c-1,0-1,0-1-2s-1,0-1-2-1,0-1-2-1,0-1-2h-1v2h-1a6,6,0,0,0-1,3v5c0,2,0,2,1,2h-4v2c0,2,0,2,1,2s0,2,1,2v11h1c0,3,0,3-1,3h-2v3c0,2,0,2,1,2h-1c-1,0-1,0-1-2h-2c-1,0-1,0-1-2v-2c-1,0-1,0-1-2h4v-2h-2a4,4,0,0,1-3-3v-3h-2c-1,0-1,0-1-2v-3c-1,0-1,0-1-2h-2v-2h3v-5h-3c0-3,0-3,1-3v-2c-1,0-1,0-1-2v-2h-1v2c-2-1-2-1-2-2v-3c-1,0-1,0-1-2h-1v3h-1v8c0,2,0,2,1,2v2h-1v2h-1v3h1c0,3,0,3-1,3h-3c-1,0-1,0-1-2v-5c-1,0-1,0-1-2v-3c-1,0-1,0-1-2s-2-1-2-2h1v-5h-3c-1,0-1,0-1-2v-2h1v-2h-1c-1,0-1,0-1-2a10,10,0,0,1-1-5v-2h-1v2h-1v2h-1v3h-1v2h-1v2h-1v2h-1v2h-4v2h-2c-1,0-1,0-1-2v-5c-1,0-1,0-1-2v-2h1v-3h-1s-1,0-1-2v-6s-1,0-1-2v-2h-2v-5h1v-3h-1c-1,0-1,0-1-2s-1,0-1-2-1,0-1-2-1,0-1-2v-2h-1s-1,0-1-2h-1c0,2-1,1-1,1v2h-2v2c0,2,0,2,1,2s0,2,1,2v2h-2v9c0,2,0,2,1,2h-2v3h-3v3c0,2-1,1-1,1v5h-2s-1,0-1-2h-1c-1,0-1,0-1-2s-1,0-1-2h-1c-1,0-1,0-1-2h-1c0-3,0-3,1-3v-5s-1,0-1-2v-2s-1,0-1-2h-1c0,2-1,1-1,1s-1,1-1,1h-4c0,2-1,1-1,1v3c-1,0-1,0-1-3v-2h-1v2c0,2-1,1-1,1v5c0,2-1,1-1,1s-1,1-1,1-1,1-1,1v3c-2-1-2-1-2-2s-1,0-1-2-1,0-1-2h-1s-1,0-1-2-1,0-1-2v-2h-4v11h-1s-1,0-1-2v-2s-1,0-1-2v-2h-1v2c0,2-1,1-1,1h-3s-1,0-1-2v-6s-1,0-1-2h-1v2c0,2-1,1-1,1h-1s-1,0-1-2h-1v2c0,2-1,1-1,1s-1,1-1,1v2c-2-1-2-1-2-2v-2s1,0,1-1v-2s-1,0-1-2v-2s-1,0-1-2h-1s-1,0-1-2v-3h-1s-1,0-1-2,1,0,1-1v-2s-1,0-1-2h-1c0-3,0-3,1-3v-2h-2v8c0,2-1,1-1,1v2c0,2,1,2,1,2v2c0,2-1,1-1,1h-3v2c0,2-1,1-1,1v2c0,2,1,2,1,2s-1,1-1,1h-1c0,2-1,1-1,1v3h-3v13c0,3,0,7,0,8v2c0,2-1,1-1,1h-1v3c0,2,1,2,1,2s-1,1-1,1h-1s-1,0-1-2-1,0-1-2-1-2-2-4h-3s-1,0-1-2,1,0,1-1v-5h-1s-1,0-1-2-1,0-1-2v-2s-1,0-1-2h-1s-1,0-1-2h-1v3c0,2-1,1-1,1v2c0,2-1,1-1,1h-1c0,2-1,1-1,1h-2s-1,0-1-2v-3s1,0,1-1v-2s-1,0-1-2v-2h-2v2c0,2-1,1-1,1h-1v5h1c0,2,1,2,1,2s-1,1-1,1v2c0,2-1,1-1,1h-1v2c0,2,1,2,1,2v2c0,2-1,1-1,1v3c0,2-1,1-1,1s-1,1-1,1-1,0-1-2-1,0-1-2v-2s-1,0-1-2-1,0-1-2v-3s-1,0-1-2v-2h-1s-1,0-1-2v-8h-1c0,2-1,1-1,1h-1s-1,0-1-2-1,0-1-2v-3h-5v-5h-2s-1,0-1-2v-3s-1,0-1-2a9,9,0,0,1-1-4h-1v2c0,2-1,1-1,1v3c0,2,1,2,1,2v6c0,2-1,1-1,1h-2v2c0,2,1,2,1,2s-1,1-1,1-1,1-1,1h-1v2h1c0,2,1,2,1,2s1,2,1,2-1,1-1,1h-2v2h2c0,2,1,2,1,2s1,2,1,2,1,2,1,2v3c0,2-1,1-1,1h-1c0,2-1,1-1,1h-1v2c0,2,1,2,1,2v3c0,2,1,2,1,2v2c0,2-1,1-1,1s-1,1-1,1h-3s-1,0-1-2v-2s-1,0-1-2h-1s-1,0-1-2v-2s1,0,1-1v-2h-1v-2s1,0,1-1v-2s-1,0-1-2h-1s-1,0-1-2,1,0,1-1v-2s-1,0-1-2-1,0-1-2h-1s-1,0-1-2h-1c0,2-1,1-1,1s-1,1-1,1v8c0,2,1,2,1,2s1,2,1,2-1,1-1,1v2c0,2-1,1-1,1s-1,1-1,1h-2v5c0,2-1,1-1,1v2c0,2,1,2,1,2h1c0,3,0,3-1,3s-1,1-1,1h-1s-1,0-1-2h-1c0,2-1,1-1,1s-1,0-1-2v-2s1,0,1-1v-2a9,9,0,0,1-1-4v-2h-1v2h-3v-3s1,0,1-1v-2h-1s-1,0-1-2v-2s1,0,1-1l-2-2v-8h-1v2c0,2-1,1-1,1h-1c0,2-1,3-1,4v2c0,2,1,2,1,2v2c0,2-1,1-1,1h-1v2h1c0,3,0,3-1,3h-1s-1,0-1-2h-2s-1,0-1-2h-1v3c0,2,1,2,1,2s1,2,1,2-1,1-1,1h-2v8c0,2-1,1-1,1h-3v2c0,2,0,2-2,1v-3s-1,0-1-2,1,0,1-1v-2h-2s-1,0-1-2h-2c0-3,0-3,1-3h1s1,0,1-1v-2h-2s-1,0-1-2a6,6,0,0,0,1-3v-2h-1l-2-2v-2s1,0,1-1v-2s-1,0-1-2-1,0-1-2h-2c0,2-1,1-1,1s-1,1-1,1-1,1-1,1-1,1-1,1-1,1-1,1-1,1-1,1-1,1-1,1h-1v-2s1,0,1-1v-3c0-2-1-3-1-5v-2s-1,0-1-2h-1c0,2-1,1-1,1s-1,1-1,1h-3v2c0,2,1,2,1,2s-1,1-1,1h-1v2c0,2,1,2,1,2s-1,1-1,1h-2s-1,0-1-2h-1v5h-1s-1,0-1-2v-2h-1s-1,0-1-2v-2s-1,0-1-2v-3s1,0,1-1v-5h-1c0,2-1,1-1,1h-1s-1,0-1-2v-2s1,0,1-1l-2-2h-1s-1,0-1-2v-2s1,0,1-1v-2s-1,0-1-2-1,0-1-2-1,0-1-2-1,0-1-2h-1c0,2-1,1-1,1s-1,1-1,1v2c0,2-1,1-1,1v3a9,9,0,0,0,1,3c-1,1-2,1-3,1v2c0,2,1,2,1,2v2h1c0,3,0,3-1,3v9c0,2-1,1-1,1h-2v2c0,2,1,2,1,2v3c-2-1-2-1-2-2h-2v2c0,2,1,2,1,2s1,2,1,2,1,2,1,2-1,1-1,1h-1s-1,0-1-2h-3v2c0,2-1,1-1,1h-1s-1,0-1-2v-2h-2s-1,0-1-2-1,0-1-2v-3s-1,0-1-2v-3h-1v3c0,2-1,1-1,1v2c0,2-1,1-1,1h-1s-1,0-1-2h-1v3c0,2-1,1-1,1s-1,1-1,1h-1c0,2-1,1-1,1h-1v3l-2-2s-1,0-1-2-1,0-1-2v-3s-1,0-1-2,1,0,1-1h1v-3h-1s-1,0-1-2-1,0-1-2v-2s1,0,1-1v-3h-1c0-3,0-3,1-3h2v-2s-1,0-1-2h-3s-1,0-1-2-1,0-1-2-1,0-1-2v-2s-1,0-1-2v-2h-2v2c0,2-1,1-1,1s-1,0-1-2h-2v8c0,2,0,2-1,1h-3v2c1,0,1,0,1,3s-2-1-2-2h-3v3h-2v-5s-1,0-1-2v-2s-1,0-1-2h-4c0-3,0-3,1-3s1,0,1-1v-3h-3v-4c1,0,1,0,1-1v-2h-1v-4s-1,0-1-2-1,0-1-2h-1c0,2-1,1-2,1s0,2-1,1v3h1c0,3,0,3-1,3v6c0,2,0,2-1,1v6c0,2,0,2-1,1h-1v3c0,2,0,2-1,1v6h1v4c0,2,0,2-1,1h-1c0,2,0,2-1,1h-1v2h2a4,4,0,0,0,3,3v2c0,2,0,2-1,1h-1c0,2,0,2-1,1v3c0,2,0,2-1,1h-1s-1,0-1-2h-1v-2h-3v-4h-1v-3c1,0,1,0,1-1s1,0,1-1v-2h-1v-9h-1v6c0,2,0,2-1,1v3c0,2,0,2-1,1h-3v3h2c0,3,0,3-1,3h-1c0,2,0,2-1,1h-2v2h1v2c0,2,0,2-1,1h-1v9c0,2,0,2-1,1s0,2-1,1h-1c0,2,0,2-1,1h-4l-16-5H227s-6,7-9,6-7-6-9-6H194l-12,6-14-3-33-11H112l-16-2L81,216l-6,2-18-4H41l-25,2L0,219V611H1225V396H1054Z" transform="translate(0 -141)"/><path class="f" d="M1225,326s-1,0-1-2h-4v3c0,2,1,2,1,2s-1,1-1,1h-1s-1,0-1-2v-2h-1v-3h-5c0-3,0-3,1-3v-5h-1s-1,0-1-2-1,0-1-2v-2h-1s-1,0-1-2-1,0-1-2v-2h-1v5c0,2-1,1-1,1s-1,1-1,1-1,1-1,1-1,1-1,1h-2s-1,0-1-2v-8h-3v2c0,2-1,1-1,1v2c0,2-1,1-1,1v2h1c0,2,1,2,1,2v2c0,2-1,1-1,1s-1,1-1,1v2c0,2,1,2,1,2s-1,1-1,1v5c0,2-1,1-1,1v2c-2-1-2-1-2-2v-3s-1,0-1-2h-1s-1,0-1-2v-2s-1,0-1-2v-3h-1s-1,0-1-2v-6s-1,0-1-2-1,1-1,1v2c-2-1-2-1-2-2v-2s-1,0-1-2v-3h-1c0,2-1,1-1,1h-1a4,4,0,0,1-3-3s1,0,1-1v-3h-1c0,2-1,1-1,1s-1,0-1-2-1-3-1-5-1,0-1-2v-2h-1c0,2-1,1-1,1v2c0,2-1,1-1,1v2c0,2,1,2,1,2v3h1c0,3,0,3-1,3h-1c0,2-1,1-1,1v2h1c0,3,0,3-1,3s-1,1-1,1h-1v2h1c0,2,1,2,1,2h1c0,3,0,3-1,3h-2v2h1c0,2,1,2,1,2h1c0,2,1,2,1,2s1,2,1,2v3c0,2-1,1-1,1h-3v2c0,2,1,2,1,2v3c0,2,1,2,1,2v2c0,2-1,1-1,1s-1,1-1,1h-2s-1,0-1-2v-2h-1s-1,0-1-2-1,0-1-2v-3s-1,0-1-2,1,0,1-1v-2s1,0,1-1v-2h-3v-5h-1s-1,0-1-2v-2h-3c0,2-1,1-1,1s-1,1-1,1v2c0,2-1,1-1,1v2c0,2,1,2,1,2v2c0,2,1,2,1,2s1,2,1,2-1,1-1,1v2c0,2-1,1-1,1s-1,1-1,1h-1v3c0,2-1,1-1,1v3c0,2,1,2,1,2v2c0,2-1,1-1,1v2c-2-1-2-1-2-2h-1v2c-2-1-2-1-2-2v-9h-2v2c-2-1-2-1-2-2v-2s1,0,1-1-1,0-1-2h-1s-1,0-1-2,1,0,1-1,1,0,1-1v-2h-2s-1,0-1-2v-6h-1v2c0,2-1,1-1,1s-1,1-1,1v6h1c0,3,0,3-1,3h-1s-1,0-1-2h-2v2c0,2,1,2,1,2h1c0,2,1,2,1,2s-1,1-1,1h-2s-1,0-1-2h-3v2c0,2,1,2,1,2s1,2,1,2v2c0,2-1,1-1,1h-1v2c0,2-1,1-1,1v2c0,2,1,2,1,2s-1,1-1,1h-2c0,2-1,1-1,1v3c-2-1-2-1-2-2v-3h-1c0-3,0-3,1-3v-2h-3s-1,0-1-2h-1v-2s1,0,1-1h1s1,0,1-1v-2h-2s-1,0-1-2v-2s1,0,1-1v-2h-3s-1,0-1-2,1,0,1-1v-3s-1,0-1-2-1,0-1-2h-2v2c0,2-1,1-1,1s-1,1-1,1-1,1-1,1-1,1-1,1-1,1-1,1-1,1-1,1v3c-2-1-2-1-2-2s1,0,1-1,1,0,1-1v-2s-1,0-1-2v-6s-1,0-1-2-1,0-1-2h-2v3c0,2-1,1-1,1h-3c0,2-1,1-1,1s1,2,1,2h1c0,3,0,3-1,3s-1,1-1,1,1,2,1,2-1,1-1,1h-4v2c0,2,1,2,1,2s-1,1-1,1-1,0-1-2a9,9,0,0,1-1-3h-1a9,9,0,0,1-1-3h-1c0-3,0-3,1-3v-6h-3v-5a4,4,0,0,1-3-3h-1v-2s1,0,1-1v-2s-1,0-1-2-1,0-1-2-1,0-1-2-1,0-1-2h-2v2c0,2-1,1-1,1v2c0,2-1,1-1,1v3c0,2,1,2,1,2v2c0,2-1,1-1,1h-3v2c0,2,1,2,1,2s1,2,1,2v2c0,2,1,2,1,2a6,6,0,0,1-1,3v6c0,2-1,1-1,1h-1v3c0,2,1,2,1,2s-1,1-1,1h-2v3c0,2,1,2,1,2s1,2,1,2v2c-2-1-2-1-2-2h-2s-1,0-1-2h-1v2c0,2-1,1-1,1s0,2-1,1-1,0-1-2v-2h-2s-1,0-1-2-1,0-1-2v-2s-1,0-1-2v-3h-2v5c0,2,0,2-1,1h-1v-2h-1v2a6,6,0,0,1-1,3c0,2-1,1-1,1s-1,1-1,1h-1v94h172V326Z" transform="translate(0 -141)"/><polyline class="g" points="792 219 774 240 724 237 673 219 632 237 568 196 518 166 478 184 430 146 394 165 333 179 332 178 259 143 259 143 227 166 227 166 208 162 178 167 161 169 43 110 28 308 142 309 184 309 416 312 466 312 568 313 738 315 778 315 788 315 827 315 862 316 897 316 925 316 1192 391 1278 337 1226 220 1184 199 1142 207 1109 194 1073 207 1038 192 1003 210 971 202 947 215 925 211 901 202 857 220 833 207 817 233"/><path class="d" d="M1140,758h0C1138,756,1139,757,1140,758Z" transform="translate(0 -141)"/><path class="d" d="M1140,758h0Z" transform="translate(0 -141)"/><path class="e" d="M1158,312" transform="translate(0 -141)"/><path class="f" d="M1382,332s-1,0-1-2h-4v3c0,2,1,2,1,2s-1,1-1,1h-1s-1,0-1-2v-2h-1v-3h-5c0-3,0-3,1-3v-5h-1s-1,0-1-2-1,0-1-2v-2h-1s-1,0-1-2-1,0-1-2v-2h-1v5c0,2-1,1-1,1s-1,1-1,1-1,1-1,1-1,1-1,1h-2s-1,0-1-2v-8h-3v2c0,2-1,1-1,1v2c0,2-1,1-1,1v2h1c0,2,1,2,1,2v2c0,2-1,1-1,1s-1,1-1,1v2c0,2,1,2,1,2s-1,1-1,1v5c0,2-1,1-1,1v2c-2-1-2-1-2-2v-3s-1,0-1-2h-1s-1,0-1-2v-2s-1,0-1-2v-3h-1s-1,0-1-2v-6s-1,0-1-2-1,1-1,1v2c-2-1-2-1-2-2v-2s-1,0-1-2v-3h-1c0,2-1,1-1,1h-1a4,4,0,0,1-3-3s1,0,1-1v-3h-1c0,2-1,1-1,1s-1,0-1-2-1-3-1-5-1,0-1-2v-2h-1c0,2-1,1-1,1v2c0,2-1,1-1,1v2c0,2,1,2,1,2v3h1c0,3,0,3-1,3h-1c0,2-1,1-1,1v2h1c0,3,0,3-1,3s-1,1-1,1h-1v2h1c0,2,1,2,1,2h1c0,3,0,3-1,3h-2v2h1c0,2,1,2,1,2h1c0,2,1,2,1,2s1,2,1,2v3c0,2-1,1-1,1h-3v2c0,2,1,2,1,2v3c0,2,1,2,1,2v2c0,2-1,1-1,1s-1,1-1,1h-2s-1,0-1-2v-2h-1s-1,0-1-2-1,0-1-2v-3s-1,0-1-2,1,0,1-1v-2s1,0,1-1v-2h-3v-5h-1s-1,0-1-2v-2h-3c0,2-1,1-1,1s-1,1-1,1v2c0,2-1,1-1,1v2c0,2,1,2,1,2v2c0,2,1,2,1,2s1,2,1,2-1,1-1,1v2c0,2-1,1-1,1s-1,1-1,1h-1v3c0,2-1,1-1,1v3c0,2,1,2,1,2v2c0,2-1,1-1,1v2c-2-1-2-1-2-2h-1v2c-2-1-2-1-2-2v-9h-2v2c-2-1-2-1-2-2v-2s1,0,1-1-1,0-1-2h-1s-1,0-1-2,1,0,1-1,1,0,1-1v-2h-2s-1,0-1-2v-6h-1v2c0,2-1,1-1,1s-1,1-1,1v6h1c0,3,0,3-1,3h-1s-1,0-1-2h-2v2c0,2,1,2,1,2h1c0,2,1,2,1,2s-1,1-1,1h-2s-1,0-1-2h-3v2c0,2,1,2,1,2s1,2,1,2v2c0,2-1,1-1,1h-1v2c0,2-1,1-1,1v2c0,2,1,2,1,2s-1,1-1,1h-2c0,2-1,1-1,1v3c-2-1-2-1-2-2v-3h-1c0-3,0-3,1-3v-2h-3s-1,0-1-2h-1v-2s1,0,1-1h1s1,0,1-1v-2h-2s-1,0-1-2v-2s1,0,1-1v-2h-3s-1,0-1-2,1,0,1-1v-3s-1,0-1-2-1,0-1-2h-2v2c0,2-1,1-1,1s-1,1-1,1-1,1-1,1-1,1-1,1-1,1-1,1-1,1-1,1v3c-2-1-2-1-2-2s1,0,1-1,1,0,1-1v-2s-1,0-1-2v-6s-1,0-1-2-1,0-1-2h-2v3c0,2-1,1-1,1h-3c0,2-1,1-1,1s1,2,1,2h1c0,3,0,3-1,3s-1,1-1,1,1,2,1,2-1,1-1,1h-4v2c0,2,1,2,1,2s-1,1-1,1-1,0-1-2a9,9,0,0,1-1-3h-1a9,9,0,0,1-1-3h-1c0-3,0-3,1-3v-6h-3v-5a4,4,0,0,1-3-3h-1v-2s1,0,1-1v-2s-1,0-1-2-1,0-1-2-1,0-1-2-1,0-1-2h-2v2c0,2-1,1-1,1v2c0,2-1,1-1,1v3c0,2,1,2,1,2v2c0,2-1,1-1,1h-3v2c0,2,1,2,1,2s1,2,1,2v2c0,2,1,2,1,2a6,6,0,0,1-1,3v6c0,2-1,1-1,1h-1v3c0,2,1,2,1,2s-1,1-1,1h-2v3c0,2,1,2,1,2s1,2,1,2v2c-2-1-2-1-2-2h-2s-1,0-1-2h-1v2c0,2-1,1-1,1s0,2-1,1-1,0-1-2v-2h-2s-1,0-1-2-1,0-1-2v-2s-1,0-1-2v-3h-2v5c0,2,0,2-1,1h-1v-2h-1v2a6,6,0,0,1-1,3c0,2-1,1-1,1s-1,1-1,1h-1v94h172V332Z" transform="translate(0 -141)"/><polyline class="g" points="1927 219 1909 240 1859 237 1807 219 1767 237 1702 242 1653 212 1613 230 1565 252 1499 221 1468 225 1467 224 1394 189 1393 189 1362 212 1362 212 1343 208 1313 213 1296 215 1127 210 1123 308 1277 309 1319 309 1551 312 1601 312 1703 313 1872 315 1913 315 1923 315 1962 315 1996 316 2031 316 2060 316 2326 391 2412 337 2361 220 2318 199 2277 207 2244 194 2208 207 2173 192 2138 210 2105 202 2082 215 2060 211 2036 202 1992 220 1967 207 1951 233"/><path class="d" d="M2275,758h0C2272,756,2274,757,2275,758Z" transform="translate(0 -141)"/><path class="d" d="M2275,758h0Z" transform="translate(0 -141)"/><path class="f" d="M1355,366c10,5,22,1,30-5s20-25,22-41h-1c0,2-1,1-1,1v3c-2-1-2-1-2-2s1,0,1-1,1,0,1-1v-2s-1,0-1-2v-6s-1,0-1-2-1,0-1-2h-2v3c0,2-1,1-1,1h-3c0,2-1,1-1,1s1,2,1,2h1c0,3,0,3-1,3s-1,1-1,1,1,2,1,2-1,1-1,1h-4v2c0,2,1,2,1,2s-1,1-1,1-1,0-1-2a9,9,0,0,1-1-3h-1a9,9,0,0,1-1-3h-1c0-3,0-3,1-3v-6h-3v-5a4,4,0,0,1-3-3h-1v-2s1,0,1-1v-2s-1,0-1-2-1,0-1-2-1,0-1-2-1,0-1-2h-2v2c0,2-1,1-1,1v2c0,2-1,1-1,1v3c0,2,1,2,1,2v2c0,2-1,1-1,1h-3v2c0,2,1,2,1,2s1,2,1,2v2c0,2,1,2,1,2a6,6,0,0,1-1,3v6c0,2-1,1-1,1h-1v3c0,2,1,2,1,2s-1,1-1,1h-2v3c0,2,1,2,1,2s1,2,1,2v2c-2-1-2-1-2-2h-2s-1,0-1-2h-1v2c0,2-1,1-1,1s0,2-1,1-1,0-1-2v-2h-2s-1,0-1-2-1,0-1-2v-2s-1,0-1-2v-3h-2v5c0,2,0,2-1,1h-1v-2h-1v2a6,6,0,0,1-1,3c0,2-1,1-1,1s-1,1-1,1h-1v41Z" transform="translate(0 -141)"/></g></svg>