<?xml version="1.0" encoding="utf-8"?>
<!-- Generator: Adobe Illustrator 21.0.2, SVG Export Plug-In . SVG Version: 6.00 Build 0)  -->
<svg version="1.1" id="Layer_1" xmlns="http://www.w3.org/2000/svg" xmlns:xlink="http://www.w3.org/1999/xlink" x="0px" y="0px"
	 viewBox="0 0 500 500" style="enable-background:new 0 0 500 500;" xml:space="preserve">
<path d="M250,500C112,500,0,388,0,250S112,0,250,0s250,112,250,250S388,500,250,500z M250,17C121,17,17,121,17,250S121,483,250,483
	S483,379,483,250C483,122.2,379,17,250,17z"/>
<path d="M279.4,338.2c-2.3,0-4.5-1.1-5.7-2.3l-82.6-82.6c-3.4-3.4-3.4-9,0-12.4l82.6-82.6c3.4-3.4,9-3.4,12.4,0
	c3.4,3.4,3.4,9,0,12.4l-76.9,76.9l76.9,76.9c3.4,3.4,3.4,9,0,12.4C283.9,337.1,281.7,338.2,279.4,338.2z"/>
</svg>
