<?xml version="1.0" encoding="utf-8"?>
<!-- Generator: Adobe Illustrator 21.0.2, SVG Export Plug-In . SVG Version: 6.00 Build 0)  -->
<svg version="1.1" id="Layer_1" xmlns="http://www.w3.org/2000/svg" xmlns:xlink="http://www.w3.org/1999/xlink" x="0px" y="0px"
	 viewBox="0 0 500 500" style="enable-background:new 0 0 500 500;" xml:space="preserve">
<path d="M250,0C111.9,0,0,111.9,0,250s111.9,250,250,250s250-111.9,250-250S388.1,0,250,0z M250,484.4
	C120.6,484.4,15.6,379.4,15.6,250S120.6,15.6,250,15.6S484.4,120.6,484.4,250S379.4,484.4,250,484.4z"/>
<path d="M312.5,187.3c0-8.6-7-16.8-15.6-18.2l-109.7-19.3l1.3-1.3h139.6v156.3h15.6V148.4c0-8.6-7-15.6-15.6-15.6H218.8
	c-1.3,0-29.4-1.8-39.1,7.8l-15.6,15.6v179.7c0,8.6,7,15.6,15.6,15.6l117.2,20.6c8.6,1.4,15.6-4.4,15.6-13
	C312.5,359.2,312.5,187.3,312.5,187.3z M296.9,356.6l-117.2-20.6V164.1l117.2,20.6V356.6z"/>
<path d="M328.1,273.4v46.9h-15.6v15.6h15.6c8.6,0,15.6-7,15.6-15.6v-46.9H328.1z"/>
</svg>
