<?xml version="1.0" encoding="utf-8"?>
<!-- Generator: Adobe Illustrator 21.0.2, SVG Export Plug-In . SVG Version: 6.00 Build 0)  -->
<svg version="1.1" id="Layer_1" xmlns="http://www.w3.org/2000/svg" xmlns:xlink="http://www.w3.org/1999/xlink" x="0px" y="0px"
	 viewBox="0 0 500 500" style="enable-background:new 0 0 500 500;" xml:space="preserve">
<path d="M250,0C111.9,0,0,111.9,0,250s111.9,250,250,250s250-111.9,250-250S388.1,0,250,0z M250,484.4
	C120.6,484.4,15.6,379.4,15.6,250S120.6,15.6,250,15.6S484.4,120.6,484.4,250S379.4,484.4,250,484.4z"/>
<path d="M321.8,189.2l-11-11L250,239l-60.8-60.8l-11,11L239,250l-60.8,60.8l11,11L250,261l60.8,60.8l11-11L261,250L321.8,189.2z"/>
</svg>
