<?xml version="1.0" encoding="utf-8"?>
<!-- Generator: Adobe Illustrator 21.0.2, SVG Export Plug-In . SVG Version: 6.00 Build 0)  -->
<svg version="1.1" id="Layer_1" xmlns="http://www.w3.org/2000/svg" xmlns:xlink="http://www.w3.org/1999/xlink" x="0px" y="0px"
	 viewBox="0 0 500 500" style="enable-background:new 0 0 500 500;" xml:space="preserve">
<g>
	<path d="M448.7,167.1c0,0,14.9,0,24.5-6.7l6.3,6.7c0,0-7.2,10.9-10.6,21.2L448.7,167.1z"/>
	<path d="M438.3,163.9L403.7,195l27.3,30.7l34.5-27.3L438.3,163.9z M415.5,195.3l20.9-18.9l16.5,20.9l-20.9,16.5L415.5,195.3z"/>
	<path d="M408.6,129.4c-6.7-12.6,0-101.8,0-101.8c-4.8,20.2-40.4,67.3-40.4,67.3h-71.2c-26.9,62.5-118.3,26-163.5,0
		c-39.3-22.6-94-4.7-106.1,0h17.6c14.8-1.6,44.5-3.1,67.6,7.1c32.1,14.1,60.6,41.3,80.8,50.6c17.1,7.9,37.4,13.9,60.3,15.5
		c24.4-2,42-6.2,55.4-14.6c23.1-14.4,40.7-16.3,55.1-9.6c14.4,6.7,35.6,44.2,35.6,44.2l32.7-28.8
		C432.7,159.4,415.4,142.1,408.6,129.4z M280.7,149.6c-22.4,2.6-46.8,4.5-70.5-7.1c0,0,45.4,8.1,69.6-9
		c18.1-12.8,27.9-25.6,27.9-25.6h37.8C345.5,107.9,303.2,147,280.7,149.6z M371.1,129.1c-5.8-3.2-27.6-1.9-27.6-1.9
		c2.9-2.9,19.9-19.2,19.9-19.2H391c-0.3,18.3,7.1,26.6,7.1,26.6l16.7,20.8l-13.5,9.9C400.6,161.5,376.9,132.3,371.1,129.1z"/>
	<path d="M476.1,256c-0.1-14.3-2.4-30.3-1.9-51l-32.7,27.4v35.1c0,0,19.7,31.7,20.2,41.4c0.5,9.6,2.4,26.4-5.8,38
		s-20.9,26.4-21.3,39.4s0,29.3,0,29.3s4.4,10.1,5.9,11.5v-42.8c0,0,20.2-22.1,20.2-25s22.1-26.4,24-45.7
		C486.7,294.5,476.2,268,476.1,256z M452.5,259.1v-22.4l13.5-13.9v24.5c0,0,3.4,39.9,6.3,48.1L452.5,259.1z"/>
</g>
</svg>
