<svg xmlns="http://www.w3.org/2000/svg" width="64" height="64" viewBox="0 0 64 64">
    <path d="M32 0C14.327 0 0 14.327 0 32s14.327 32 32 32 32-14.327 32-32S49.673 0 32 0zm0 62C15.432 62 2 48.568 2 32 2 15.432 15.432 2 32 2c16.568 0 30 13.432 30 30 0 16.568-13.432 30-30 30z"/>
    <path d="M43.012 22.307l-6.789-4.033c-.938-.557-2.137-.227-2.678.738L26.254 32.35l-.979 1.746c-.319.568-.781 1.278-.735 2.021L24.012 45s.413 2 1.988 2v-.014a1.88 1.88 0 0 0 .826-.198l7.306-4.976c.647-.328 1.009-1.099 1.327-1.666l.98-1.748.49-.873 6.799-12.464c.543-.964.221-2.198-.716-2.754zm-5.33 9.845l-2.449 4.365-.49.873s-.352.625-.98 1.746c-.629 1.122-1.966 2.187-2.452 2.432l-3.718 3.011c-.44.226-.959.207-1.383-.045s-.698-.705-.729-1.209l.674-4.818c-.034-.555.182-2.271.817-3.401l1.96-3.494 1.96-3.493 1.429-2.661 6.791 4.031-1.43 2.663zm2.36-4.393l-6.792-4.031 1.992-3.708 6.79 4.033-1.99 3.706z"/>
</svg>
