<svg xmlns="http://www.w3.org/2000/svg" width="64" height="64" viewBox="0 0 64 64">
    <path d="M32 0C14.327 0 0 14.327 0 32s14.327 32 32 32 32-14.327 32-32S49.673 0 32 0zm0 62C15.432 62 2 48.568 2 32 2 15.432 15.432 2 32 2c16.568 0 30 13.432 30 30 0 16.568-13.432 30-30 30z"/>
    <path d="M39 29h-6.111c.096 0 2.865-10.314 3.08-12.013 0-1.453-1.023-1.952-1.714-1.987-.665-.034-1.53.334-1.901.891l-7.3 10.809C23.684 28.86 22 30.896 22 32.031c0 1.955 1.091 3 3 3h5c.464 0 .913-.016.913-.016s-2.881 9.483-2.881 11.871c0 1.855 1.016 2.077 1.705 2.112.665.034 1.352-.334 1.722-.892l6.73-10.123C39.891 35.844 42 32.729 42 32a3 3 0 0 0-3-3zm-1.913 7.786l-5.995 9.2c-.303.457-.438.92-.982.92-.546 0-.765-.156-.765-.889l3.633-10.984s.021-.449.021-1.002c0-.823-.58-1-1.214-1H25c-.553 0-1-.604-1-1.156s2.484-3.782 2.819-4.286l5.902-9.576c.303-.457.438-.919.981-.919.546 0 .733.156.733.888l-3.444 10.972s-.009-.253-.009 1.064c0 .933.641.998 1.106.982H39c.553 0 1 .447 1 1s-2.578 4.282-2.913 4.786z"/>
</svg>
