<svg xmlns="http://www.w3.org/2000/svg" width="64" height="64" viewBox="0 0 64 64">
    <path d="M32 0C14.327 0 0 14.327 0 32s14.327 32 32 32 32-14.327 32-32S49.673 0 32 0zm0 62C15.432 62 2 48.568 2 32 2 15.432 15.432 2 32 2c16.568 0 30 13.432 30 30 0 16.568-13.432 30-30 30z"/>
    <path d="M43 18l-14 4a2 2 0 0 0-2 2v13.021A4.974 4.974 0 0 0 24 36a5 5 0 0 0-5 5 5 5 0 0 0 9.899 1H29V30l14-4v7.021A4.974 4.974 0 0 0 40 32a5 5 0 0 0-5 5 5 5 0 0 0 9.898 1H45V20a2 2 0 0 0-2-2zM24 44a3 3 0 1 1 0-6 3 3 0 0 1 0 6zm16-4a3 3 0 1 1 0-6 3 3 0 0 1 0 6zm3-16l-14 4v-4l14-4v4z"/>
</svg>
