<svg xmlns="http://www.w3.org/2000/svg" width="64" height="64" viewBox="0 0 64 64">
    <path d="M32 0C14.327 0 0 14.327 0 32s14.327 32 32 32 32-14.327 32-32S49.673 0 32 0zm0 62C15.432 62 2 48.568 2 32.001 2 15.432 15.432 2 32 2c16.568 0 30 13.432 30 30.001C62 48.568 48.568 62 32 62z"/>
    <path d="M41.109 30.341l-12-7.989a2.005 2.005 0 0 0-2.053-.1A1.995 1.995 0 0 0 26 24.013v15.98c0 .737.406 1.412 1.057 1.761.65.348 1.439.311 2.053-.1l12-7.989a1.996 1.996 0 0 0-.001-3.324zM38.8 33.422l-9.389 5.786c-.504.335-1.411.351-1.411.351V24.348s.907-.046 1.411.287l9.389 6.193c.457.303.731.688.731 1.234 0 .545-.274 1.057-.731 1.36z"/>
</svg>
