<svg xmlns="http://www.w3.org/2000/svg" width="64" height="64" viewBox="0 0 64 64">
    <path d="M32 0C14.328 0 0 14.327 0 32s14.328 32 32 32 32-14.327 32-32S49.673 0 32 0zm0 62C15.432 62 2 48.568 2 32 2 15.432 15.432 2 32 2c16.568 0 30 13.432 30 30 0 16.568-13.432 30-30 30z"/>
    <path d="M32 26a6 6 0 0 0 0 12 6 6 0 0 0 0-12zm0 10a4 4 0 1 1 0-8 4 4 0 0 1 0 8zm12-5h-1.048c-.476-5.279-4.681-9.478-9.962-9.95.001-.018.01-.032.01-.05v-1a1 1 0 0 0-2 0v1c0 .018.009.032.01.05-5.281.472-9.486 4.671-9.962 9.95H20a1 1 0 1 0 0 2h1.048c.476 5.275 4.676 9.473 9.952 9.95V44a1 1 0 1 0 2 0v-1.05c5.275-.478 9.477-4.675 9.952-9.95H44a1 1 0 1 0 0-2zM32 41a9 9 0 0 1-9-9 9 9 0 0 1 9-9 9 9 0 0 1 9 9 9 9 0 0 1-9 9z"/>
</svg>
