<svg xmlns="http://www.w3.org/2000/svg" width="64" height="64" viewBox="0 0 64 64">
    <path d="M32 0C14.327 0 0 14.327 0 32s14.327 32 32 32 32-14.327 32-32S49.673 0 32 0zm0 62.001C15.432 62.001 2 48.568 2 32S15.432 2 32 2c16.568 0 30 13.432 30 30 0 16.568-13.432 30.001-30 30.001z"/>
    <path d="M31 22h2v9h-2z"/>
    <path d="M37.666 22.936l-1.064 1.329c2.627 1.571 4.393 4.437 4.393 7.722 0 4.971-4.026 9-8.993 9s-8.993-4.028-8.993-9c0-3.285 1.766-6.15 4.393-7.722l-1.065-1.329C23.142 24.828 21 28.259 21 32.189 21 38.16 25.925 43 32 43s11-4.84 11-10.811c0-3.93-2.143-7.361-5.334-9.253z"/>
</svg>
