<svg xmlns="http://www.w3.org/2000/svg" width="64" height="64" viewBox="0 0 64 64">
    <path d="M32 0C14.328 0 0 14.327 0 32s14.328 32 32 32 32-14.327 32-32S49.673 0 32 0zm0 62C15.432 62 2 48.568 2 32.001 2 15.432 15.432 2 32 2c16.568 0 30 13.432 30 30.001C62 48.568 48.568 62 32 62z"/>
    <path d="M45.714 43.357l-5.712-5.713A10.432 10.432 0 0 0 42 31.5C42 25.701 37.3 21 31.5 21 25.702 21 21 25.701 21 31.5S25.702 42 31.5 42c2.809 0 5.354-1.109 7.238-2.906l5.619 5.62a.958.958 0 0 0 1.356 0 .958.958 0 0 0 .001-1.357zM31.5 40a8.501 8.501 0 0 1 0-17 8.501 8.501 0 0 1 0 17z"/>
</svg>
