<svg xmlns="http://www.w3.org/2000/svg" width="64" height="64" viewBox="0 0 64 64">
    <path d="M32 0C14.327 0 0 14.327 0 32s14.327 32 32 32 32-14.327 32-32S49.673 0 32 0zm0 62C15.432 62 2 48.568 2 32 2 15.432 15.432 2 32 2c16.568 0 30 13.432 30 30 0 16.568-13.432 30-30 30z"/>
    <path d="M42 34c-.494 0-.963.102-1.4.266l-5.213-8.156A3.97 3.97 0 0 0 36 24a4 4 0 0 0-8 0c0 .911.316 1.74.829 2.413l-.134-.086-5.155 7.981A4 4 0 1 0 26 38c0-.936-.334-1.783-.871-2.465l5.134-7.947A3.956 3.956 0 0 0 32 28c.688 0 1.323-.189 1.889-.494l5.067 7.928A3.961 3.961 0 0 0 38 38a4 4 0 1 0 4-4zm-20 6a2 2 0 0 1 0-4c.144 0 .283.018.418.045l-.018.028 1.262.813A2.002 2.002 0 0 1 22 40zm10-14a2 2 0 1 1 .001-4.001A2 2 0 0 1 32 26zm10 14a2 2 0 1 1 .001-4.001A2 2 0 0 1 42 40z"/>
</svg>
