<svg xmlns="http://www.w3.org/2000/svg" width="64" height="64" viewBox="0 0 64 64">
    <path d="M32 0C14.327 0 0 14.327 0 32s14.327 32 32 32 32-14.327 32-32S49.673 0 32 0zm0 62.001c-16.568 0-30-13.433-30-30C2 15.432 15.432 2 32 2c16.568 0 30 13.432 30 30.001 0 16.567-13.432 30-30 30z"/>
    <path d="M47 28H36l-2.76-10.043A1.29 1.29 0 0 0 32 17a1.29 1.29 0 0 0-1.24.957L27 28H17c-.714 0-1 .41-1 1.137 0 .445.22.843.554 1.079.206.142 8.347 6.152 8.347 6.152s-3.127 9.705-3.188 9.858a1.498 1.498 0 0 0-.079.459 1.3 1.3 0 0 0 1.293 1.313c.273 0 .526-.088.74-.235L32 41.631s8.146 5.999 8.334 6.135a1.3 1.3 0 0 0 .739.234c.714 0 1.293-.593 1.293-1.314 0-.16-.032-.315-.079-.457-.061-.154-3.188-9.859-3.188-9.859s8.141-6.011 8.346-6.152c.334-.239.555-.636.555-1.087C48 28.41 47.714 28 47 28zm-4.662 3.144c-.123.084-6.122 3.653-6.122 3.653s2.938 7.512 2.976 7.604a.902.902 0 0 1 .047.272c0 .429-.344.78-.768.78a.762.762 0 0 1-.438-.141c-.113-.08-6.033-4.35-6.033-4.35l-5.76 4.228a.767.767 0 0 1-.439.14.775.775 0 0 1-.769-.78.88.88 0 0 1 .048-.271c.036-.092 2.704-7.479 2.704-7.479s-5.896-3.569-6.018-3.653a.785.785 0 0 1-.329-.641c0-.432.201-.519.625-.519H29l2.264-6.119A.766.766 0 0 1 32 23.3c.352 0 .646.24.736.568l1.856 6.119 7.448.031c.424 0 .625.056.625.483a.78.78 0 0 1-.327.643z"/>
</svg>
