<svg xmlns="http://www.w3.org/2000/svg" width="64" height="64" viewBox="0 0 64 64">
    <path d="M32 0C14.327 0 0 14.327 0 32s14.327 32 32 32 32-14.327 32-32S49.673 0 32 0zm0 62C15.432 62 2 48.568 2 32 2 15.432 15.432 2 32 2c16.568 0 30 13.432 30 30 0 16.568-13.432 30-30 30z"/>
    <path d="M48 23c0-3.313-2.688-6-6-6H28a6 6 0 0 0-6 6v8c0 3.312 2.687 6 6 6h11.93l6.204 4.665c.479.479.919.548 1.397.272.363-.211.511-.52.457-.91L48 31v-8zm-2 16.441l-5.116-3.976a.993.993 0 0 0-1.227-.422l.005-.045H28a4 4 0 0 1-4-4v-8a4 4 0 0 1 4-4h14a4 4 0 0 1 4 4v16.443z"/>
    <path d="M31 24a3 3 0 1 0 0 6 3 3 0 0 0 0-6zm0 4a1 1 0 1 1 0-2 1 1 0 0 1 0 2zm8-4a3 3 0 1 0 0 6 3 3 0 0 0 0-6zm0 4a1 1 0 1 1 0-2 1 1 0 0 1 0 2zm-5.008 9A3.987 3.987 0 0 1 30 40.908h-5.661l.004.044a.995.995 0 0 0-1.227.421L18 45.329V32.973c0-2.199 1.791-3.98 4-3.98V28c0-.341.035-.674.09-1H22c-3.313 0-6 2.674-6 5.973v3.954l.012 9.981c-.054.389.094.695.457.904.479.274.919.205 1.397-.271l6.204-4.644H30c3.289 0 5.956-2.635 5.996-5.898h-2.004z"/>
</svg>
