<?xml version="1.0" encoding="iso-8859-1"?>
<!-- Generator: Adobe Illustrator 19.0.0, SVG Export Plug-In . SVG Version: 6.00 Build 0)  -->
<svg version="1.1" id="Layer_1" xmlns="http://www.w3.org/2000/svg" xmlns:xlink="http://www.w3.org/1999/xlink" x="0px" y="0px"
	 viewBox="0 0 512 512" style="enable-background:new 0 0 512 512;" xml:space="preserve">
<g>
	<path style="fill:#9E5A23;" d="M202.924,512h-70.621l-4.414-15.89c-14.124-47.669-16.772-97.986-7.062-147.421
		c13.241-44.138,15.89-98.869,7.062-143.89l-4.414-10.593h70.621l3.531,10.593c8.828,45.021,7.062,100.634-7.062,143.89
		c-9.71,48.552-7.062,99.752,7.062,147.421L202.924,512z"/>
	<path style="fill:#9E5A23;" d="M123.476,35.31h70.621V0h-70.621V35.31z"/>
</g>
<path style="fill:#D1D1D1;" d="M385.655,20.303L375.945,0l-50.317,16.772C288.552,29.131,250.593,35.31,211.752,35.31H105.821
	v158.897h105.931c38.841,0,76.8,6.179,113.876,18.538l50.317,16.772l9.71-20.303C413.021,149.186,413.021,80.331,385.655,20.303"/>
<path style="fill:#DD342E;" d="M375.945,0l-48.552,15.89l7.945,17.655c23.835,51.2,23.835,111.228,0,162.428l-7.945,17.655
	l48.552,15.89l9.71-20.303c27.366-60.028,27.366-128.883,0-188.91L375.945,0z"/>
<g>
	<path style="fill:#844414;" d="M115.531,432.552c0.883,6.179,0.883,11.476,1.766,17.655h23.834c5.297,0,8.828-3.531,8.828-8.828
		s-3.531-8.828-8.828-8.828H115.531C116.414,432.552,116.414,432.552,115.531,432.552"/>
	<path style="fill:#844414;" d="M124.359,485.517h25.6c5.297,0,8.828-3.531,8.828-8.828s-3.531-8.828-8.828-8.828h-27.366
		c-0.883,0-0.883,0-1.766,0C121.71,474.041,123.476,479.338,124.359,485.517"/>
</g>
<g>
</g>
<g>
</g>
<g>
</g>
<g>
</g>
<g>
</g>
<g>
</g>
<g>
</g>
<g>
</g>
<g>
</g>
<g>
</g>
<g>
</g>
<g>
</g>
<g>
</g>
<g>
</g>
<g>
</g>
</svg>
