<?xml version="1.0" encoding="iso-8859-1"?>
<!-- Generator: Adobe Illustrator 19.0.0, SVG Export Plug-In . SVG Version: 6.00 Build 0)  -->
<svg version="1.1" id="Capa_1" xmlns="http://www.w3.org/2000/svg" xmlns:xlink="http://www.w3.org/1999/xlink" x="0px" y="0px"
	 viewBox="0 0 512 512" style="enable-background:new 0 0 512 512;" xml:space="preserve">
<polygon style="fill:#BD7D50;" points="153.221,358.778 163.829,369.387 487.524,45.692 476.916,35.084 308.022,192.14 "/>
<rect x="80.879" y="184.129" transform="matrix(-0.7071 0.7071 -0.7071 -0.7071 664.2997 108.0973)" style="fill:#DD975A;" width="457.767" height="15.002"/>
<polygon style="fill:#FFB769;" points="244.566,267.433 429.283,452.151 450.499,430.935 265.782,246.218 244.566,246.218 "/>
<rect x="147.807" y="33.86" transform="matrix(-0.7071 0.7071 -0.7071 -0.7071 394.2307 165.6463)" style="fill:#FFCE97;" width="30.004" height="261.223"/>
<polygon style="fill:#FFB769;" points="111.517,400.484 119.242,436.93 197.273,358.898 189.547,322.452 132.308,351.843 "/>
<polygon style="fill:#FFCE97;" points="153.101,314.727 75.07,392.758 111.517,400.484 189.547,322.452 189.547,322.452 "/>
<path style="fill:#B45600;" d="M432.151,512l-9.461-9.462c-8.642-8.642-13.401-20.133-13.401-32.355s4.76-23.713,13.402-32.356
	c76.968-76.968,76.968-202.205,0-279.174l21.216-21.216c42.952,42.951,66.607,100.059,66.607,160.803
	c0,60.742-23.654,117.851-66.607,160.802c-2.976,2.976-4.614,6.933-4.614,11.141s1.638,8.163,4.614,11.138l9.462,9.463L432.151,512z
	"/>
<path style="fill:#E47500;" d="M41.817,102.712c-12.223,0-23.713-4.76-32.355-13.402l-9.461-9.461l21.216-21.216l9.461,9.461
	c2.976,2.976,6.932,4.614,11.14,4.614s8.164-1.638,11.139-4.614C95.909,25.142,153.017,1.487,213.76,1.487
	s117.851,23.654,160.803,66.607L353.347,89.31c-76.968-76.967-202.205-76.969-279.174,0C65.53,97.952,54.04,102.712,41.817,102.712z
	"/>
<polygon style="fill:#813900;" points="421.232,180.943 466.195,135.979 421.108,90.892 380.482,96.495 376.144,135.855 "/>
<polygon style="fill:#E0E3E6;" points="453.746,58.254 491.988,96.495 512,0 512,0 459.901,29.127 "/>
<polygon style="fill:#F5F5F6;" points="415.505,20.013 453.746,58.254 512,0 "/>
<rect x="344.21" y="59.04" transform="matrix(0.7071 0.7071 -0.7071 0.7071 174.3841 -239.3317)" style="fill:#B45600;" width="63.763" height="63.588"/>
<g>
</g>
<g>
</g>
<g>
</g>
<g>
</g>
<g>
</g>
<g>
</g>
<g>
</g>
<g>
</g>
<g>
</g>
<g>
</g>
<g>
</g>
<g>
</g>
<g>
</g>
<g>
</g>
<g>
</g>
</svg>
